<?xml version="1.0" encoding="UTF-8" standalone="no"?>
<!-- Created with Inkscape (http://www.inkscape.org/) -->

<svg
   width="64"
   height="64"
   viewBox="0 0 16.933333 16.933333"
   version="1.1"
   id="svg1"
   xml:space="preserve"
   inkscape:version="1.4.3 (0d15f75, 2025-12-25)"
   sodipodi:docname="favico.svg"
   xmlns:inkscape="http://www.inkscape.org/namespaces/inkscape"
   xmlns:sodipodi="http://sodipodi.sourceforge.net/DTD/sodipodi-0.dtd"
   xmlns="http://www.w3.org/2000/svg"
   xmlns:svg="http://www.w3.org/2000/svg"><sodipodi:namedview
     id="namedview1"
     pagecolor="#ffffff"
     bordercolor="#000000"
     borderopacity="0.25"
     inkscape:showpageshadow="2"
     inkscape:pageopacity="0.0"
     inkscape:pagecheckerboard="0"
     inkscape:deskcolor="#d1d1d1"
     inkscape:document-units="mm"
     inkscape:zoom="9.6875"
     inkscape:cx="31.948387"
     inkscape:cy="32"
     inkscape:window-width="1512"
     inkscape:window-height="839"
     inkscape:window-x="0"
     inkscape:window-y="33"
     inkscape:window-maximized="1"
     inkscape:current-layer="layer1"
     showguides="true"
     showgrid="false" /><defs
     id="defs1"><inkscape:perspective
       sodipodi:type="inkscape:persp3d"
       inkscape:vp_x="0 : -131.56667 : 1"
       inkscape:vp_y="0 : 999.99995 : 0"
       inkscape:vp_z="210 : -131.56667 : 1"
       inkscape:persp3d-origin="105.00001 : -181.06667 : 1"
       id="perspective905" /></defs><g
     inkscape:label="Livello 1"
     inkscape:groupmode="layer"
     id="layer1"><text
       xml:space="preserve"
       style="font-style:normal;font-variant:normal;font-weight:normal;font-stretch:normal;font-size:9.00773px;line-height:1.25;font-family:'Merriweather Sans';-inkscape-font-specification:'Merriweather Sans, Normal';font-variant-ligatures:normal;font-variant-caps:normal;font-variant-numeric:normal;font-feature-settings:normal;text-align:center;letter-spacing:0px;word-spacing:0px;writing-mode:lr-tb;text-anchor:middle;fill:#ffffff;fill-opacity:1;stroke:none;stroke-width:0.264583"
       x="593.00378"
       y="-29.986099"
       id="text1618" /><path
       inkscape:connector-curvature="0"
       id="path7-9"
       d="m 11.643222,14.978836 c -0.166934,-0.01385 -0.353021,-0.05188 -0.518176,-0.106224 -0.17433,-0.05729 -0.454995,-0.199268 -0.602048,-0.304603 -0.137109,-0.09823 -0.348656,-0.296245 -0.452691,-0.423854 -0.2193832,-0.269422 -0.3838499,-0.595401 -0.4659358,-0.92451 -0.2640729,-1.057536 0.1908239,-2.144831 1.1196858,-2.675679 0.224227,-0.128178 0.466752,-0.213774 0.752727,-0.265825 0.177896,-0.03232 0.548296,-0.02912 0.744246,0.0061 0.187378,0.03399 0.421948,0.110303 0.586427,0.190832 0.0707,0.03459 0.133774,0.06293 0.140226,0.06293 0.01774,0 0.01552,-5.558089 -0.0046,-5.5685289 -0.01584,-0.00957 -5.4442285,-0.9122252 -5.4859127,-0.9122252 h -0.02933 v 3.50332 c 0,2.3503287 -0.00457,3.5461921 -0.013554,3.6336271 C 7.2725986,12.596237 6.0078604,13.564107 4.6713565,13.29307 3.7723749,13.110753 3.0459746,12.371655 2.8605075,11.450579 2.7254676,10.779792 2.8674335,10.114383 3.2655287,9.5518085 3.3656478,9.4104839 3.6505286,9.1276807 3.7964791,9.0248339 4.0202786,8.8672505 4.2505595,8.7560196 4.5064366,8.6820355 c 0.220888,-0.063907 0.3176126,-0.075592 0.6218649,-0.075142 0.2445518,0 0.2999982,0.00384 0.411464,0.028474 0.1734193,0.037836 0.3711395,0.1039331 0.5155294,0.1724022 0.065591,0.031083 0.1268868,0.056502 0.1362454,0.056502 0.015477,0 0.017742,-0.5436392 0.017742,-3.4605835 0,-2.4608468 0.00457,-3.4606014 0.013168,-3.4606014 0.030012,0 7.8832647,1.6141877 7.8919557,1.6220332 0.0046,0.00488 0.0081,2.0977774 0.0081,4.6514643 0,4.0866467 -0.0046,4.6580587 -0.01774,4.7680057 -0.0874,0.572472 -0.38249,1.101913 -0.81672,1.46505 -0.376433,0.314752 -0.805481,0.490591 -1.292768,0.529934 -0.176758,0.01423 -0.170307,0.01423 -0.356441,0 z m -0.376004,-1.102709 c 0.107467,-0.08131 0.283294,-0.215043 0.390942,-0.297133 0.129563,-0.09866 0.203517,-0.147315 0.218472,-0.143407 0.01356,0.0022 0.193266,0.134112 0.402055,0.290853 0.308134,0.2312 0.387271,0.284954 0.41951,0.284954 0.0531,0 0.0979,-0.04305 0.0979,-0.09401 0,-0.02164 -0.06521,-0.242042 -0.145321,-0.489813 -0.07981,-0.247801 -0.143318,-0.460703 -0.141308,-0.473135 0.0046,-0.01274 0.164758,-0.141171 0.374461,-0.296019 0.204009,-0.150366 0.38341,-0.285013 0.39899,-0.299215 0.05195,-0.04746 0.02698,-0.164048 -0.03779,-0.175203 -0.0081,-0.0022 -0.23601,-0.0022 -0.505393,-0.0022 h -0.489652 l -0.146642,-0.477714 c -0.156315,-0.50823 -0.162942,-0.522668 -0.239217,-0.522668 -0.0544,0 -0.09135,0.04572 -0.122984,0.151906 -0.01517,0.05135 -0.08005,0.263371 -0.143547,0.471001 l -0.11575,0.377514 -0.50128,0.003 c -0.544973,0.003 -0.532237,0.0022 -0.56012,0.07489 -0.02527,0.0665 0,0.08986 0.409924,0.393513 0.244082,0.18029 0.394936,0.299738 0.394936,0.312713 0,0.01167 -0.06513,0.227262 -0.144403,0.47942 -0.07958,0.252124 -0.144428,0.469177 -0.144428,0.48231 0,0.03429 0.06757,0.09741 0.104429,0.09741 0.0204,0 0.09918,-0.05173 0.226005,-0.147866 z"
       style="display:inline;fill:#aa0000;fill-opacity:1;stroke-width:0.17874"
       inkscape:export-xdpi="90"
       inkscape:export-ydpi="90" /></g></svg>
