<?xml version="1.0" encoding="UTF-8"?>
<svg xmlns="http://www.w3.org/2000/svg" xmlns:xlink="http://www.w3.org/1999/xlink" width="0" height="0">
<symbol id="arrow-down" width="32" height="32" viewBox="0 0 256 256"><path d="M205.66,149.66l-72,72a8,8,0,0,1-11.32,0l-72-72a8,8,0,0,1,11.32-11.32L120,196.69V40a8,8,0,0,1,16,0V196.69l58.34-58.35a8,8,0,0,1,11.32,11.32Z"></path></symbol><symbol id="arrow-left" width="32" height="32" viewBox="0 0 256 256"><path d="M224,128a8,8,0,0,1-8,8H59.31l58.35,58.34a8,8,0,0,1-11.32,11.32l-72-72a8,8,0,0,1,0-11.32l72-72a8,8,0,0,1,11.32,11.32L59.31,120H216A8,8,0,0,1,224,128Z"></path></symbol><symbol id="books" width="32" height="32" viewBox="0 0 256 256"><path d="M231.65,194.55,198.46,36.75a16,16,0,0,0-19-12.39L132.65,34.42a16.08,16.08,0,0,0-12.3,19l33.19,157.8A16,16,0,0,0,169.16,224a16.25,16.25,0,0,0,3.38-.36l46.81-10.06A16.09,16.09,0,0,0,231.65,194.55ZM136,50.15c0-.06,0-.09,0-.09l46.8-10,3.33,15.87L139.33,66Zm6.62,31.47,46.82-10.05,3.34,15.9L146,97.53Zm6.64,31.57,46.82-10.06,13.3,63.24-46.82,10.06ZM216,197.94l-46.8,10-3.33-15.87L212.67,182,216,197.85C216,197.91,216,197.94,216,197.94ZM104,32H56A16,16,0,0,0,40,48V208a16,16,0,0,0,16,16h48a16,16,0,0,0,16-16V48A16,16,0,0,0,104,32ZM56,48h48V64H56Zm0,32h48v96H56Zm48,128H56V192h48v16Z"></path></symbol><symbol id="calendar-dots" width="32" height="32" viewBox="0 0 256 256"><path d="M208,32H184V24a8,8,0,0,0-16,0v8H88V24a8,8,0,0,0-16,0v8H48A16,16,0,0,0,32,48V208a16,16,0,0,0,16,16H208a16,16,0,0,0,16-16V48A16,16,0,0,0,208,32ZM72,48v8a8,8,0,0,0,16,0V48h80v8a8,8,0,0,0,16,0V48h24V80H48V48ZM208,208H48V96H208V208Zm-68-76a12,12,0,1,1-12-12A12,12,0,0,1,140,132Zm44,0a12,12,0,1,1-12-12A12,12,0,0,1,184,132ZM96,172a12,12,0,1,1-12-12A12,12,0,0,1,96,172Zm44,0a12,12,0,1,1-12-12A12,12,0,0,1,140,172Zm44,0a12,12,0,1,1-12-12A12,12,0,0,1,184,172Z"></path></symbol><symbol id="calendar-star" width="32" height="32" viewBox="0 0 256 256"><path d="M208,32H184V24a8,8,0,0,0-16,0v8H88V24a8,8,0,0,0-16,0v8H48A16,16,0,0,0,32,48V208a16,16,0,0,0,16,16H208a16,16,0,0,0,16-16V48A16,16,0,0,0,208,32Zm0,176H48V48H72v8a8,8,0,0,0,16,0V48h80v8a8,8,0,0,0,16,0V48h24V208Zm-31.38-94.36-29.84-2.31-11.43-26.5a8,8,0,0,0-14.7,0l-11.43,26.5-29.84,2.31a8,8,0,0,0-4.47,14.14l22.52,18.59-6.86,27.71a8,8,0,0,0,11.82,8.81L128,167.82l25.61,15.07a8,8,0,0,0,11.82-8.81l-6.86-27.71,22.52-18.59a8,8,0,0,0-4.47-14.14Zm-32.11,23.6a8,8,0,0,0-2.68,8.09l3.5,14.12-13.27-7.81a8,8,0,0,0-8.12,0l-13.27,7.81,3.5-14.12a8,8,0,0,0-2.68-8.09l-11.11-9.18,14.89-1.15a8,8,0,0,0,6.73-4.8l6-13.92,6,13.92a8,8,0,0,0,6.73,4.8l14.89,1.15Z"></path></symbol><symbol id="chat-text" width="32" height="32" viewBox="0 0 256 256"><path d="M216,48H40A16,16,0,0,0,24,64V224a15.85,15.85,0,0,0,9.24,14.5A16.13,16.13,0,0,0,40,240a15.89,15.89,0,0,0,10.25-3.78l.09-.07L83,208H216a16,16,0,0,0,16-16V64A16,16,0,0,0,216,48ZM40,224h0ZM216,192H80a8,8,0,0,0-5.23,1.95L40,224V64H216ZM88,112a8,8,0,0,1,8-8h64a8,8,0,0,1,0,16H96A8,8,0,0,1,88,112Zm0,32a8,8,0,0,1,8-8h64a8,8,0,1,1,0,16H96A8,8,0,0,1,88,144Z"></path></symbol><symbol id="download-simple" width="32" height="32" viewBox="0 0 256 256"><path d="M224,144v64a8,8,0,0,1-8,8H40a8,8,0,0,1-8-8V144a8,8,0,0,1,16,0v56H208V144a8,8,0,0,1,16,0Zm-101.66,5.66a8,8,0,0,0,11.32,0l40-40a8,8,0,0,0-11.32-11.32L136,124.69V32a8,8,0,0,0-16,0v92.69L93.66,98.34a8,8,0,0,0-11.32,11.32Z"></path></symbol><symbol id="envelope-simple" width="32" height="32" viewBox="0 0 256 256"><path d="M224,48H32a8,8,0,0,0-8,8V192a16,16,0,0,0,16,16H216a16,16,0,0,0,16-16V56A8,8,0,0,0,224,48ZM203.43,64,128,133.15,52.57,64ZM216,192H40V74.19l82.59,75.71a8,8,0,0,0,10.82,0L216,74.19V192Z"></path></symbol><symbol id="facebook-logo" width="32" height="32" viewBox="0 0 256 256"><path d="M128,24A104,104,0,1,0,232,128,104.11,104.11,0,0,0,128,24Zm8,191.63V152h24a8,8,0,0,0,0-16H136V112a16,16,0,0,1,16-16h16a8,8,0,0,0,0-16H152a32,32,0,0,0-32,32v24H96a8,8,0,0,0,0,16h24v63.63a88,88,0,1,1,16,0Z"></path></symbol><symbol id="faders" width="32" height="32" viewBox="0 0 256 256"><path d="M136,120v96a8,8,0,0,1-16,0V120a8,8,0,0,1,16,0Zm64,72a8,8,0,0,0-8,8v16a8,8,0,0,0,16,0V200A8,8,0,0,0,200,192Zm24-32H208V40a8,8,0,0,0-16,0V160H176a8,8,0,0,0,0,16h48a8,8,0,0,0,0-16ZM56,160a8,8,0,0,0-8,8v48a8,8,0,0,0,16,0V168A8,8,0,0,0,56,160Zm24-32H64V40a8,8,0,0,0-16,0v88H32a8,8,0,0,0,0,16H80a8,8,0,0,0,0-16Zm72-48H136V40a8,8,0,0,0-16,0V80H104a8,8,0,0,0,0,16h48a8,8,0,0,0,0-16Z"></path></symbol><symbol id="file-pdf" width="32" height="32" viewBox="0 0 256 256"><path d="M224,152a8,8,0,0,1-8,8H192v16h16a8,8,0,0,1,0,16H192v16a8,8,0,0,1-16,0V152a8,8,0,0,1,8-8h32A8,8,0,0,1,224,152ZM92,172a28,28,0,0,1-28,28H56v8a8,8,0,0,1-16,0V152a8,8,0,0,1,8-8H64A28,28,0,0,1,92,172Zm-16,0a12,12,0,0,0-12-12H56v24h8A12,12,0,0,0,76,172Zm88,8a36,36,0,0,1-36,36H112a8,8,0,0,1-8-8V152a8,8,0,0,1,8-8h16A36,36,0,0,1,164,180Zm-16,0a20,20,0,0,0-20-20h-8v40h8A20,20,0,0,0,148,180ZM40,112V40A16,16,0,0,1,56,24h96a8,8,0,0,1,5.66,2.34l56,56A8,8,0,0,1,216,88v24a8,8,0,0,1-16,0V96H152a8,8,0,0,1-8-8V40H56v72a8,8,0,0,1-16,0ZM160,80h28.69L160,51.31Z"></path></symbol><symbol id="file" width="32" height="32" viewBox="0 0 256 256"><path d="M213.66,82.34l-56-56A8,8,0,0,0,152,24H56A16,16,0,0,0,40,40V216a16,16,0,0,0,16,16H200a16,16,0,0,0,16-16V88A8,8,0,0,0,213.66,82.34ZM160,51.31,188.69,80H160ZM200,216H56V40h88V88a8,8,0,0,0,8,8h48V216Z"></path></symbol><symbol id="globe" width="32" height="32" viewBox="0 0 256 256"><path d="M128,24h0A104,104,0,1,0,232,128,104.12,104.12,0,0,0,128,24Zm88,104a87.61,87.61,0,0,1-3.33,24H174.16a157.44,157.44,0,0,0,0-48h38.51A87.61,87.61,0,0,1,216,128ZM102,168H154a115.11,115.11,0,0,1-26,45A115.27,115.27,0,0,1,102,168Zm-3.9-16a140.84,140.84,0,0,1,0-48h59.88a140.84,140.84,0,0,1,0,48ZM40,128a87.61,87.61,0,0,1,3.33-24H81.84a157.44,157.44,0,0,0,0,48H43.33A87.61,87.61,0,0,1,40,128ZM154,88H102a115.11,115.11,0,0,1,26-45A115.27,115.27,0,0,1,154,88Zm52.33,0H170.71a135.28,135.28,0,0,0-22.3-45.6A88.29,88.29,0,0,1,206.37,88ZM107.59,42.4A135.28,135.28,0,0,0,85.29,88H49.63A88.29,88.29,0,0,1,107.59,42.4ZM49.63,168H85.29a135.28,135.28,0,0,0,22.3,45.6A88.29,88.29,0,0,1,49.63,168Zm98.78,45.6a135.28,135.28,0,0,0,22.3-45.6h35.66A88.29,88.29,0,0,1,148.41,213.6Z"></path></symbol><symbol id="guitar" width="32" height="32" viewBox="0 0 256 256"><path d="M249.66,46.34l-40-40a8,8,0,0,0-11.31,11.32L200.69,20,140.52,80.16C117.73,68.3,92.21,69.29,76.75,84.74a42.27,42.27,0,0,0-9.39,14.37A8.24,8.24,0,0,1,59.81,104c-14.59.49-27.26,5.72-36.65,15.11C11.08,131.22,6,148.6,8.74,168.07,11.4,186.7,21.07,205.15,36,220s33.34,24.56,52,27.22A71.13,71.13,0,0,0,98.1,248c15.32,0,28.83-5.23,38.76-15.16,9.39-9.39,14.62-22.06,15.11-36.65a8.24,8.24,0,0,1,4.92-7.55,42.12,42.12,0,0,0,14.37-9.39c15.45-15.46,16.44-41,4.58-63.77L236,55.31l2.34,2.34a8,8,0,1,0,11.32-11.31ZM160,167.93a26.12,26.12,0,0,1-8.95,5.83,24.24,24.24,0,0,0-15,21.89c-.36,10.46-4,19.41-10.43,25.88-8.44,8.43-21,11.95-35.36,9.89C75,229.25,59.73,221.19,47.27,208.73S26.75,181,24.58,165.81c-2-14.37,1.46-26.92,9.89-35.36C40.94,124,49.89,120.37,60.35,120h0a24.22,24.22,0,0,0,21.89-15,26.12,26.12,0,0,1,5.83-9c5.49-5.49,13-8.13,21.38-8.13a49.38,49.38,0,0,1,19.13,4.19L108.5,112.19a32,32,0,1,0,35.31,35.31l20.08-20.08C170.41,142.71,169.47,158.41,160,167.93Zm-10.4-61.48a72.9,72.9,0,0,1,5.93,6.75l-15.42,15.42a32.22,32.22,0,0,0-12.68-12.68l15.42-15.43A73,73,0,0,1,149.55,106.45ZM112,128a16,16,0,0,1,16,16h0a16,16,0,1,1-16-16Zm48.85-32.85a86.94,86.94,0,0,0-6.68-6L176,67.31,188.69,80l-21.83,21.82A86.94,86.94,0,0,0,160.86,95.14ZM200,68.68,187.32,56,212,31.31,224.69,44ZM93.66,194.33a8,8,0,0,1-11.31,11.32l-32-32a8,8,0,0,1,11.32-11.31Z"></path></symbol><symbol id="headphones" width="32" height="32" viewBox="0 0 256 256"><path d="M201.89,54.66A103.43,103.43,0,0,0,128.79,24H128A104,104,0,0,0,24,128v56a24,24,0,0,0,24,24H64a24,24,0,0,0,24-24V144a24,24,0,0,0-24-24H40.36A88,88,0,0,1,128,40h.67a87.71,87.71,0,0,1,87,80H192a24,24,0,0,0-24,24v40a24,24,0,0,0,24,24h16a24,24,0,0,0,24-24V128A103.41,103.41,0,0,0,201.89,54.66ZM64,136a8,8,0,0,1,8,8v40a8,8,0,0,1-8,8H48a8,8,0,0,1-8-8V136Zm152,48a8,8,0,0,1-8,8H192a8,8,0,0,1-8-8V144a8,8,0,0,1,8-8h24Z"></path></symbol><symbol id="ildeposito" width="32" height="32" viewBox="0 0 256 256"><g transform="translate(16.70,0) scale(8.4136)"><path d="M20.5105 30.141c-.3827-.0318-.8092-.119-1.1878-.2435-.3996-.1314-1.043-.4568-1.38-.6983-.3143-.2251-.7992-.679-1.0377-.9715-.5029-.6176-.8799-1.3648-1.068-2.1192-.6053-2.4241.4374-4.9165 2.5666-6.1333.514-.2938 1.0699-.49 1.7254-.6093.4078-.0741 1.2568-.0668 1.706.0139.4295.0779.9672.2528 1.3442.4374.162.0793.3066.1443.3214.1443.0407 0 .0356-12.7405-.0105-12.7644-.0363-.022-12.4794-2.091-12.575-2.091h-.0672v8.0304c0 5.3875-.0105 8.1287-.031 8.3291-.3249 3.2139-3.224 5.4325-6.2875 4.8112-2.0607-.418-3.7258-2.1121-4.151-4.2234-.3095-1.5376.016-3.063.9285-4.3525.2295-.324.8825-.9722 1.217-1.208.513-.3611 1.0409-.6161 1.6274-.7857.5063-.1465.728-.1733 1.4255-.1722.5605 0 .6876.0088.9431.0652.3976.0868.8508.2383 1.1818.3952.1503.0713.2908.1295.3123.1295.0354 0 .0406-1.2461.0406-7.9324 0-5.6409.0105-7.9325.0302-7.9325.0688 0 18.0703 3.7 18.0902 3.718.0105.0112.0188 4.8086.0188 10.6623 0 9.3675-.0105 10.6774-.0407 10.9294-.2004 1.3122-.8768 2.5258-1.8721 3.3582-.8629.7215-1.8464 1.1246-2.9634 1.2147-.4051.0327-.3903.0327-.817 0zm-.8619-2.5277c.2463-.1864.6494-.493.8961-.6811.297-.2262.4665-.3377.5008-.3287.0311.0049.443.3074.9216.6667.7063.53.8877.6532.9616.6532.1218 0 .2245-.0987.2245-.2155 0-.0496-.1495-.5548-.3332-1.1228-.1829-.568-.3285-1.056-.3239-1.0845.0105-.0292.3777-.3236.8584-.6786.4676-.3447.8789-.6533.9146-.6859.119-.1087.0618-.376-.0867-.4016-.0187-.0049-.541-.0049-1.1584-.0049h-1.1224l-.3362-1.095c-.3583-1.165-.3735-1.1982-.5483-1.1982-.1247 0-.2094.1048-.282.3482-.0347.1177-.1834.6038-.329 1.0797l-.2653.8653-1.149.007c-1.2493.0068-1.22.0048-1.284.1716-.0579.1524 0 .206.9397.902.5595.4133.9053.687.9053.7168 0 .0268-.1493.521-.331 1.099-.1825.5779-.3311 1.0754-.3311 1.1055 0 .0786.1549.2233.2394.2233.0467 0 .2273-.1185.518-.3389z"/></g></symbol><symbol id="list" width="32" height="32" viewBox="0 0 256 256"><path d="M224,128a8,8,0,0,1-8,8H40a8,8,0,0,1,0-16H216A8,8,0,0,1,224,128ZM40,72H216a8,8,0,0,0,0-16H40a8,8,0,0,0,0,16ZM216,184H40a8,8,0,0,0,0,16H216a8,8,0,0,0,0-16Z"></path></symbol><symbol id="magnifying-glass" width="32" height="32" viewBox="0 0 256 256"><path d="M229.66,218.34l-50.07-50.06a88.11,88.11,0,1,0-11.31,11.31l50.06,50.07a8,8,0,0,0,11.32-11.32ZM40,112a72,72,0,1,1,72,72A72.08,72.08,0,0,1,40,112Z"></path></symbol><symbol id="music-note-simple" width="32" height="32" viewBox="0 0 256 256"><path d="M210.3,56.34l-80-24A8,8,0,0,0,120,40V148.26A48,48,0,1,0,136,184V50.75l69.7,20.91a8,8,0,1,0,4.6-15.32ZM88,216a32,32,0,1,1,32-32A32,32,0,0,1,88,216Z"></path></symbol><symbol id="music-note" width="32" height="32" viewBox="0 0 256 256"><path d="M210.3,56.34l-80-24A8,8,0,0,0,120,40V148.26A48,48,0,1,0,136,184V98.75l69.7,20.91A8,8,0,0,0,216,112V64A8,8,0,0,0,210.3,56.34ZM88,216a32,32,0,1,1,32-32A32,32,0,0,1,88,216ZM200,101.25l-64-19.2V50.75L200,70Z"></path></symbol><symbol id="music-notes-simple" width="32" height="32" viewBox="0 0 256 256"><path d="M212.92,17.69a8,8,0,0,0-6.86-1.45l-128,32A8,8,0,0,0,72,56V166.08A36,36,0,1,0,88,196V62.25l112-28v99.83A36,36,0,1,0,216,164V24A8,8,0,0,0,212.92,17.69ZM52,216a20,20,0,1,1,20-20A20,20,0,0,1,52,216Zm128-32a20,20,0,1,1,20-20A20,20,0,0,1,180,184Z"></path></symbol><symbol id="music-notes" width="32" height="32" viewBox="0 0 256 256"><path d="M212.92,17.69a8,8,0,0,0-6.86-1.45l-128,32A8,8,0,0,0,72,56V166.08A36,36,0,1,0,88,196V110.25l112-28v51.83A36,36,0,1,0,216,164V24A8,8,0,0,0,212.92,17.69ZM52,216a20,20,0,1,1,20-20A20,20,0,0,1,52,216ZM88,93.75V62.25l112-28v31.5ZM180,184a20,20,0,1,1,20-20A20,20,0,0,1,180,184Z"></path></symbol><symbol id="pause" width="32" height="32" viewBox="0 0 256 256"><path d="M200,32H160a16,16,0,0,0-16,16V208a16,16,0,0,0,16,16h40a16,16,0,0,0,16-16V48A16,16,0,0,0,200,32Zm0,176H160V48h40ZM96,32H56A16,16,0,0,0,40,48V208a16,16,0,0,0,16,16H96a16,16,0,0,0,16-16V48A16,16,0,0,0,96,32Zm0,176H56V48H96Z"></path></symbol><symbol id="play" width="32" height="32" viewBox="0 0 256 256"><path d="M232.4,114.49,88.32,26.35a16,16,0,0,0-16.2-.3A15.86,15.86,0,0,0,64,39.87V216.13A15.94,15.94,0,0,0,80,232a16.07,16.07,0,0,0,8.36-2.35L232.4,141.51a15.81,15.81,0,0,0,0-27ZM80,215.94V40l143.83,88Z"></path></symbol><symbol id="quotes" width="32" height="32" viewBox="0 0 256 256"><path d="M100,56H40A16,16,0,0,0,24,72v64a16,16,0,0,0,16,16h60v8a32,32,0,0,1-32,32,8,8,0,0,0,0,16,48.05,48.05,0,0,0,48-48V72A16,16,0,0,0,100,56Zm0,80H40V72h60ZM216,56H156a16,16,0,0,0-16,16v64a16,16,0,0,0,16,16h60v8a32,32,0,0,1-32,32,8,8,0,0,0,0,16,48.05,48.05,0,0,0,48-48V72A16,16,0,0,0,216,56Zm0,80H156V72h60Z"></path></symbol><symbol id="share-network" width="32" height="32" viewBox="0 0 256 256"><path d="M176,160a39.89,39.89,0,0,0-28.62,12.09l-46.1-29.63a39.8,39.8,0,0,0,0-28.92l46.1-29.63a40,40,0,1,0-8.66-13.45l-46.1,29.63a40,40,0,1,0,0,55.82l46.1,29.63A40,40,0,1,0,176,160Zm0-128a24,24,0,1,1-24,24A24,24,0,0,1,176,32ZM64,152a24,24,0,1,1,24-24A24,24,0,0,1,64,152Zm112,72a24,24,0,1,1,24-24A24,24,0,0,1,176,224Z"></path></symbol><symbol id="tag" width="32" height="32" viewBox="0 0 256 256"><path d="M243.31,136,144,36.69A15.86,15.86,0,0,0,132.69,32H40a8,8,0,0,0-8,8v92.69A15.86,15.86,0,0,0,36.69,144L136,243.31a16,16,0,0,0,22.63,0l84.68-84.68a16,16,0,0,0,0-22.63Zm-96,96L48,132.69V48h84.69L232,147.31ZM96,84A12,12,0,1,1,84,72,12,12,0,0,1,96,84Z"></path></symbol><symbol id="telegram-logo" width="32" height="32" viewBox="0 0 256 256"><path d="M228.88,26.19a9,9,0,0,0-9.16-1.57L17.06,103.93a14.22,14.22,0,0,0,2.43,27.21L72,141.45V200a15.92,15.92,0,0,0,10,14.83,15.91,15.91,0,0,0,17.51-3.73l25.32-26.26L165,220a15.88,15.88,0,0,0,10.51,4,16.3,16.3,0,0,0,5-.79,15.85,15.85,0,0,0,10.67-11.63L231.77,35A9,9,0,0,0,228.88,26.19Zm-61.14,36L78.15,126.35l-49.6-9.73ZM88,200V152.52l24.79,21.74Zm87.53,8L92.85,135.5l119-85.29Z"></path></symbol><symbol id="threads-logo" width="32" height="32" viewBox="0 0 256 256"><path d="M186.42,123.65a63.81,63.81,0,0,0-11.13-6.72c-4-29.89-24-39.31-33.1-42.07-19.78-6-42.51,1.19-52.85,16.7a8,8,0,0,0,13.32,8.88c6.37-9.56,22-14.16,34.89-10.27,9.95,3,16.82,10.3,20.15,21a81.05,81.05,0,0,0-15.29-1.43c-13.92,0-26.95,3.59-36.67,10.1C94.3,127.57,88,139,88,152c0,20.58,15.86,35.52,37.71,35.52a48,48,0,0,0,34.35-14.81c6.44-6.7,14-18.36,15.61-37.1.38.26.74.53,1.1.8C186.88,144.05,192,154.68,192,168c0,19.36-20.34,48-64,48-26.73,0-45.48-8.65-57.34-26.44C60.93,175,56,154.26,56,128s4.93-47,14.66-61.56C82.52,48.65,101.27,40,128,40c32.93,0,54,13.25,64.53,40.52a8,8,0,1,0,14.93-5.75C194.68,41.56,167.2,24,128,24,96,24,72.19,35.29,57.34,57.56,45.83,74.83,40,98.52,40,128s5.83,53.17,17.34,70.44C72.19,220.71,96,232,128,232c30.07,0,48.9-11.48,59.4-21.1C200.3,199.08,208,183,208,168,208,149.66,200.54,134.32,186.42,123.65Zm-37.89,38a31.94,31.94,0,0,1-22.82,9.9c-10.81,0-21.71-6-21.71-19.52,0-12.63,12-26.21,38.41-26.21A63.88,63.88,0,0,1,160,128.24C160,142.32,156,153.86,148.53,161.62Z"></path></symbol><symbol id="user-list" width="32" height="32" viewBox="0 0 256 256"><path d="M152,80a8,8,0,0,1,8-8h88a8,8,0,0,1,0,16H160A8,8,0,0,1,152,80Zm96,40H160a8,8,0,0,0,0,16h88a8,8,0,0,0,0-16Zm0,48H184a8,8,0,0,0,0,16h64a8,8,0,0,0,0-16Zm-96.25,22a8,8,0,0,1-5.76,9.74,7.55,7.55,0,0,1-2,.26,8,8,0,0,1-7.75-6c-6.16-23.94-30.34-42-56.25-42s-50.09,18.05-56.25,42a8,8,0,0,1-15.5-4c5.59-21.71,21.84-39.29,42.46-48a48,48,0,1,1,58.58,0C129.91,150.71,146.16,168.29,151.75,190ZM80,136a32,32,0,1,0-32-32A32,32,0,0,0,80,136Z"></path></symbol><symbol id="user" width="32" height="32" viewBox="0 0 256 256"><path d="M230.92,212c-15.23-26.33-38.7-45.21-66.09-54.16a72,72,0,1,0-73.66,0C63.78,166.78,40.31,185.66,25.08,212a8,8,0,1,0,13.85,8c18.84-32.56,52.14-52,89.07-52s70.23,19.44,89.07,52a8,8,0,1,0,13.85-8ZM72,96a56,56,0,1,1,56,56A56.06,56.06,0,0,1,72,96Z"></path></symbol><symbol id="video" width="32" height="32" viewBox="0 0 256 256"><path d="M164.44,105.34l-48-32A8,8,0,0,0,104,80v64a8,8,0,0,0,12.44,6.66l48-32a8,8,0,0,0,0-13.32ZM120,129.05V95l25.58,17ZM216,40H40A16,16,0,0,0,24,56V168a16,16,0,0,0,16,16H216a16,16,0,0,0,16-16V56A16,16,0,0,0,216,40Zm0,128H40V56H216V168Zm16,40a8,8,0,0,1-8,8H32a8,8,0,0,1,0-16H224A8,8,0,0,1,232,208Z"></path></symbol><symbol id="whatsapp-logo" width="32" height="32" viewBox="0 0 256 256"><path d="M187.58,144.84l-32-16a8,8,0,0,0-8,.5l-14.69,9.8a40.55,40.55,0,0,1-16-16l9.8-14.69a8,8,0,0,0,.5-8l-16-32A8,8,0,0,0,104,64a40,40,0,0,0-40,40,88.1,88.1,0,0,0,88,88,40,40,0,0,0,40-40A8,8,0,0,0,187.58,144.84ZM152,176a72.08,72.08,0,0,1-72-72A24,24,0,0,1,99.29,80.46l11.48,23L101,118a8,8,0,0,0-.73,7.51,56.47,56.47,0,0,0,30.15,30.15A8,8,0,0,0,138,155l14.61-9.74,23,11.48A24,24,0,0,1,152,176ZM128,24A104,104,0,0,0,36.18,176.88L24.83,210.93a16,16,0,0,0,20.24,20.24l34.05-11.35A104,104,0,1,0,128,24Zm0,192a87.87,87.87,0,0,1-44.06-11.81,8,8,0,0,0-6.54-.67L40,216,52.47,178.6a8,8,0,0,0-.66-6.54A88,88,0,1,1,128,216Z"></path></symbol><symbol id="x-logo" width="32" height="32" viewBox="0 0 256 256"><path d="M214.75,211.71l-62.6-98.38,61.77-67.95a8,8,0,0,0-11.84-10.76L143.24,99.34,102.75,35.71A8,8,0,0,0,96,32H48a8,8,0,0,0-6.75,12.3l62.6,98.37-61.77,68a8,8,0,1,0,11.84,10.76l58.84-64.72,40.49,63.63A8,8,0,0,0,160,224h48a8,8,0,0,0,6.75-12.29ZM164.39,208,62.57,48h29L193.43,208Z"></path></symbol><symbol id="youtube-logo" width="32" height="32" viewBox="0 0 256 256"><path d="M164.44,121.34l-48-32A8,8,0,0,0,104,96v64a8,8,0,0,0,12.44,6.66l48-32a8,8,0,0,0,0-13.32ZM120,145.05V111l25.58,17ZM234.33,69.52a24,24,0,0,0-14.49-16.4C185.56,39.88,131,40,128,40s-57.56-.12-91.84,13.12a24,24,0,0,0-14.49,16.4C19.08,79.5,16,97.74,16,128s3.08,48.5,5.67,58.48a24,24,0,0,0,14.49,16.41C69,215.56,120.4,216,127.34,216h1.32c6.94,0,58.37-.44,91.18-13.11a24,24,0,0,0,14.49-16.41c2.59-10,5.67-28.22,5.67-58.48S236.92,79.5,234.33,69.52Zm-15.49,113a8,8,0,0,1-4.77,5.49c-31.65,12.22-85.48,12-86,12H128c-.54,0-54.33.2-86-12a8,8,0,0,1-4.77-5.49C34.8,173.39,32,156.57,32,128s2.8-45.39,5.16-54.47A8,8,0,0,1,41.93,68c30.52-11.79,81.66-12,85.85-12h.27c.54,0,54.38-.18,86,12a8,8,0,0,1,4.77,5.49C221.2,82.61,224,99.43,224,128S221.2,173.39,218.84,182.47Z"></path></symbol></svg>
