<svg width="0" height="0" class="hidden" xmlns="http://www.w3.org/2000/svg">
  <!-- Navigation icons (filled) -->
  <symbol viewBox="0 0 256 256" id="arrow-right-fill">
    <path d="M221.66,133.66l-72,72A8,8,0,0,1,136,200V136H40a8,8,0,0,1,0-16h96V56a8,8,0,0,1,13.66-5.66l72,72A8,8,0,0,1,221.66,133.66Z" fill="currentColor"/>
  </symbol>

  <!-- Content icons (filled) -->
  <symbol viewBox="0 0 256 256" id="books-fill">
    <path d="M231.65,194.55,198.46,36.75a16,16,0,0,0-19-12.39L132.65,34.42a16.08,16.08,0,0,0-12.3,19l33.19,157.8A16,16,0,0,0,169.16,224a16.25,16.25,0,0,0,3.38-.36l46.81-10.06A16.09,16.09,0,0,0,231.65,194.55ZM136,50.15c0-.06,0-.09,0-.09l46.8-10,3.33,15.87L139.33,66Zm10,47.38-3.35-15.9,46.82-10.06,3.34,15.9Zm70,100.41-46.8,10-3.33-15.87L212.67,182,216,197.85C216,197.91,216,197.94,216,197.94ZM104,32H56A16,16,0,0,0,40,48V208a16,16,0,0,0,16,16h48a16,16,0,0,0,16-16V48A16,16,0,0,0,104,32ZM56,48h48V64H56Zm48,160H56V192h48v16Z" fill="currentColor"/>
  </symbol>

  <symbol viewBox="0 0 256 256" id="calendar-dots-fill">
    <path d="M208,32H184V24a8,8,0,0,0-16,0v8H88V24a8,8,0,0,0-16,0v8H48A16,16,0,0,0,32,48V208a16,16,0,0,0,16,16H208a16,16,0,0,0,16-16V48A16,16,0,0,0,208,32ZM84,184a12,12,0,1,1,12-12A12,12,0,0,1,84,184Zm44,0a12,12,0,1,1,12-12A12,12,0,0,1,128,184Zm0-40a12,12,0,1,1,12-12A12,12,0,0,1,128,144Zm44,40a12,12,0,1,1,12-12A12,12,0,0,1,172,184Zm0-40a12,12,0,1,1,12-12A12,12,0,0,1,172,144Zm36-64H48V48H72v8a8,8,0,0,0,16,0V48h80v8a8,8,0,0,0,16,0V48h24Z" fill="currentColor"/>
  </symbol>

  <symbol viewBox="0 0 256 256" id="calendar-star-fill">
    <path d="M208,32H184V24a8,8,0,0,0-16,0v8H88V24a8,8,0,0,0-16,0v8H48A16,16,0,0,0,32,48V208a16,16,0,0,0,16,16H208a16,16,0,0,0,16-16V48A16,16,0,0,0,208,32ZM72,64V56a8,8,0,0,1,16,0v8a8,8,0,0,1-16,0Zm106.55,60.7-24.46,20.19L161.55,175a4,4,0,0,1-1.49,4.17,4.05,4.05,0,0,1-2.39.79,4,4,0,0,1-2-.55L128,163.18l-27.64,16.27A4,4,0,0,1,94.45,175l7.46-30.15L77.45,124.7a4,4,0,0,1,2.24-7.08l32.24-2.49,12.4-28.71a4,4,0,0,1,7.34,0l12.4,28.71,32.24,2.49a4,4,0,0,1,2.24,7.08ZM184,64a8,8,0,0,1-16,0V56a8,8,0,0,1,16,0Z" fill="currentColor"/>
  </symbol>

  <symbol viewBox="0 0 256 256" id="chat-text-fill">
    <path d="M216,48H40A16,16,0,0,0,24,64V224a15.84,15.84,0,0,0,9.25,14.5A16.05,16.05,0,0,0,40,240a15.89,15.89,0,0,0,10.25-3.78l.09-.07L83,208H216a16,16,0,0,0,16-16V64A16,16,0,0,0,216,48ZM160,152H96a8,8,0,0,1,0-16h64a8,8,0,0,1,0,16Zm0-32H96a8,8,0,0,1,0-16h64a8,8,0,0,1,0,16Z" fill="currentColor"/>
  </symbol>

  <symbol viewBox="0 0 256 256" id="download-simple-fill">
    <path d="M224,144v64a8,8,0,0,1-8,8H40a8,8,0,0,1-8-8V144a8,8,0,0,1,16,0v56H208V144a8,8,0,0,1,16,0Zm-101.66,5.66a8,8,0,0,0,11.32,0l40-40A8,8,0,0,0,168,96H136V32a8,8,0,0,0-16,0V96H88a8,8,0,0,0-5.66,13.66Z" fill="currentColor"/>
  </symbol>

  <!-- Social icons (filled) -->
  <symbol viewBox="0 0 256 256" id="facebook-logo-fill">
    <path d="M232,128a104.16,104.16,0,0,1-91.55,103.26,4,4,0,0,1-4.45-4V152h24a8,8,0,0,0,8-8.53,8.17,8.17,0,0,0-8.25-7.47H136V112a16,16,0,0,1,16-16h16a8,8,0,0,0,8-8.53A8.17,8.17,0,0,0,167.73,80H152a32,32,0,0,0-32,32v24H96a8,8,0,0,0-8,8.53A8.17,8.17,0,0,0,96.27,152H120v75.28a4,4,0,0,1-4.44,4A104.15,104.15,0,0,1,24.07,124.09c2-54,45.74-97.9,99.78-100A104.12,104.12,0,0,1,232,128Z" fill="currentColor"/>
  </symbol>

  <symbol viewBox="0 0 256 256" id="youtube-logo-fill">
    <path d="M234.33,69.52a24,24,0,0,0-14.49-16.4C185.56,39.88,131,40,128,40s-57.56-.12-91.84,13.12a24,24,0,0,0-14.49,16.4C19.08,79.5,16,97.74,16,128s3.08,48.5,5.67,58.48a24,24,0,0,0,14.49,16.41C69,215.56,120.4,216,127.34,216h1.32c6.94,0,58.37-.44,91.18-13.11a24,24,0,0,0,14.49-16.41c2.59-10,5.67-28.22,5.67-58.48S236.92,79.5,234.33,69.52Zm-73.74,65-40,28A8,8,0,0,1,108,156V100a8,8,0,0,1,12.59-6.55l40,28a8,8,0,0,1,0,13.1Z" fill="currentColor"/>
  </symbol>

  <!-- UI controls (filled) -->
  <symbol viewBox="0 0 256 256" id="faders-fill">
    <path d="M136,120v96a8,8,0,0,1-16,0V120a8,8,0,0,1,16,0Zm64,72a8,8,0,0,0-8,8v16a8,8,0,0,0,16,0V200A8,8,0,0,0,200,192Zm24-48H208V40a8,8,0,0,0-16,0V144H176a8,8,0,0,0-8,8v16a8,8,0,0,0,8,8h48a8,8,0,0,0,8-8V152A8,8,0,0,0,224,144ZM56,160a8,8,0,0,0-8,8v48a8,8,0,0,0,16,0V168A8,8,0,0,0,56,160Zm24-48H64V40a8,8,0,0,0-16,0v72H32a8,8,0,0,0-8,8v16a8,8,0,0,0,8,8H80a8,8,0,0,0,8-8V120A8,8,0,0,0,80,112Zm72-48H136V40a8,8,0,0,0-16,0V64H104a8,8,0,0,0-8,8V88a8,8,0,0,0,8,8h48a8,8,0,0,0,8-8V72A8,8,0,0,0,152,64Z" fill="currentColor"/>
  </symbol>

  <symbol viewBox="0 0 256 256" id="magnifying-glass-fill">
    <path d="M168,112a56,56,0,1,1-56-56A56,56,0,0,1,168,112Zm61.66,117.66a8,8,0,0,1-11.32,0l-50.06-50.07a88,88,0,1,1,11.32-11.31l50.06,50.06A8,8,0,0,1,229.66,229.66ZM112,184a72,72,0,1,0-72-72A72.08,72.08,0,0,0,112,184Z" fill="currentColor"/>
  </symbol>

  <symbol viewBox="0 0 256 256" id="share-network-fill">
    <path d="M212,200a36,36,0,1,1-69.85-12.25l-53-34.05a36,36,0,1,1,0-51.4l53-34a36.09,36.09,0,1,1,8.67,13.45l-53,34.05a36,36,0,0,1,0,24.5l53,34.05A36,36,0,0,1,212,200Z" fill="currentColor"/>
  </symbol>

  <symbol viewBox="0 0 256 256" id="tag-fill">
    <path d="M243.31,136,144,36.69A15.86,15.86,0,0,0,132.69,32H40a8,8,0,0,0-8,8v92.69A15.86,15.86,0,0,0,36.69,144L136,243.31a16,16,0,0,0,22.63,0l84.68-84.68a16,16,0,0,0,0-22.63ZM84,96A12,12,0,1,1,96,84,12,12,0,0,1,84,96Z" fill="currentColor"/>
  </symbol>

  <symbol viewBox="0 0 256 256" id="globe-fill">
    <path d="M128,24h0A104,104,0,1,0,232,128,104.12,104.12,0,0,0,128,24Zm78.36,64H170.71a135.28,135.28,0,0,0-22.3-45.6A88.29,88.29,0,0,1,206.37,88ZM216,128a87.61,87.61,0,0,1-3.33,24H174.16a157.44,157.44,0,0,0,0-48h38.51A87.61,87.61,0,0,1,216,128ZM128,43a115.27,115.27,0,0,1,26,45H102A115.11,115.11,0,0,1,128,43ZM102,168H154a115.11,115.11,0,0,1-26,45A115.27,115.27,0,0,1,102,168Zm-3.9-16a140.84,140.84,0,0,1,0-48h59.88a140.84,140.84,0,0,1,0,48Zm50.35,61.6a135.28,135.28,0,0,0,22.3-45.6h35.66A88.29,88.29,0,0,1,148.41,213.6Z" fill="currentColor"/>
  </symbol>

  <!-- File/document icons (filled) -->
  <symbol viewBox="0 0 256 256" id="file-fill">
    <path d="M213.66,82.34l-56-56A8,8,0,0,0,152,24H56A16,16,0,0,0,40,40V216a16,16,0,0,0,16,16H200a16,16,0,0,0,16-16V88A8,8,0,0,0,213.66,82.34ZM152,88V44l44,44Z" fill="currentColor"/>
  </symbol>

  <symbol viewBox="0 0 256 256" id="file-pdf-fill">
    <path d="M44,120H212a4,4,0,0,0,4-4V88a8,8,0,0,0-2.34-5.66l-56-56A8,8,0,0,0,152,24H56A16,16,0,0,0,40,40v76A4,4,0,0,0,44,120ZM152,44l44,44H152Zm72,108.53a8.18,8.18,0,0,1-8.25,7.47H192v16h15.73a8.17,8.17,0,0,1,8.25,7.47,8,8,0,0,1-8,8.53H192v15.73a8.17,8.17,0,0,1-7.47,8.25,8,8,0,0,1-8.53-8V152a8,8,0,0,1,8-8h32A8,8,0,0,1,224,152.53ZM64,144H48a8,8,0,0,0-8,8v55.73A8.17,8.17,0,0,0,47.47,216,8,8,0,0,0,56,208v-8h7.4c15.24,0,28.14-11.92,28.59-27.15A28,28,0,0,0,64,144Zm-.35,40H56V160h8a12,12,0,0,1,12,13.16A12.25,12.25,0,0,1,63.65,184ZM128,144H112a8,8,0,0,0-8,8v56a8,8,0,0,0,8,8h15.32c19.66,0,36.21-15.48,36.67-35.13A36,36,0,0,0,128,144Zm-.49,56H120V160h8a20,20,0,0,1,20,20.77C147.58,191.59,138.34,200,127.51,200Z" fill="currentColor"/>
  </symbol>

  <symbol viewBox="0 0 256 256" id="list-fill">
    <path d="M208,32H48A16,16,0,0,0,32,48V208a16,16,0,0,0,16,16H208a16,16,0,0,0,16-16V48A16,16,0,0,0,208,32ZM192,184H64a8,8,0,0,1,0-16H192a8,8,0,0,1,0,16Zm0-48H64a8,8,0,0,1,0-16H192a8,8,0,0,1,0,16Zm0-48H64a8,8,0,0,1,0-16H192a8,8,0,0,1,0,16Z" fill="currentColor"/>
  </symbol>

  <!-- User/profile icons (filled) -->
  <symbol viewBox="0 0 256 256" id="user-fill">
    <path d="M230.93,220a8,8,0,0,1-6.93,4H32a8,8,0,0,1-6.92-12c15.23-26.33,38.7-45.21,66.09-54.16a72,72,0,1,1,73.66,0c27.39,8.95,50.86,27.83,66.09,54.16A8,8,0,0,1,230.93,220Z" fill="currentColor"/>
  </symbol>

  <symbol viewBox="0 0 256 256" id="user-list-fill">
    <path d="M152,80a8,8,0,0,1,8-8h88a8,8,0,0,1,0,16H160A8,8,0,0,1,152,80Zm96,40H160a8,8,0,0,0,0,16h88a8,8,0,0,0,0-16Zm0,48H184a8,8,0,0,0,0,16h64a8,8,0,0,0,0-16ZM109.29,142a48,48,0,1,0-58.58,0c-20.62,8.73-36.87,26.3-42.46,48A8,8,0,0,0,16,200H144a8,8,0,0,0,7.75-10C146.16,168.29,129.91,150.72,109.29,142Z" fill="currentColor"/>
  </symbol>

  <!-- Music/media icons (filled) -->
  <symbol viewBox="0 0 256 256" id="music-note-fill">
    <path d="M210.3,56.34l-80-24A8,8,0,0,0,120,40V148.26A48,48,0,1,0,136,184V98.75l69.7,20.91A8,8,0,0,0,216,112V64A8,8,0,0,0,210.3,56.34Z" fill="currentColor"/>
  </symbol>

  <symbol viewBox="0 0 256 256" id="music-note-simple-fill">
    <path d="M210.3,56.34l-80-24A8,8,0,0,0,120,40V148.26A48,48,0,1,0,136,184V50.75l69.7,20.91a8,8,0,1,0,4.6-15.32Z" fill="currentColor"/>
  </symbol>

  <symbol viewBox="0 0 256 256" id="music-notes-fill">
    <path d="M212.92,17.71a7.89,7.89,0,0,0-6.86-1.46l-128,32A8,8,0,0,0,72,56V166.1A36,36,0,1,0,88,196V102.25l112-28V134.1A36,36,0,1,0,216,164V24A8,8,0,0,0,212.92,17.71Z" fill="currentColor"/>
  </symbol>

  <symbol viewBox="0 0 256 256" id="music-notes-simple-fill">
    <path d="M212.92,17.69a8,8,0,0,0-6.86-1.45l-128,32A8,8,0,0,0,72,56V166.08A36,36,0,1,0,88,196V62.25l112-28v99.83A36,36,0,1,0,216,164V24A8,8,0,0,0,212.92,17.69Z" fill="currentColor"/>
  </symbol>

  <symbol viewBox="0 0 256 256" id="headphones-fill">
    <path d="M232,128v56a24,24,0,0,1-24,24H192a24,24,0,0,1-24-24V144a24,24,0,0,1,24-24h23.65a87.71,87.71,0,0,0-87-80H128a88,88,0,0,0-87.64,80H64a24,24,0,0,1,24,24v40a24,24,0,0,1-24,24H48a24,24,0,0,1-24-24V128A104.11,104.11,0,0,1,201.89,54.66,103.41,103.41,0,0,1,232,128Z" fill="currentColor"/>
  </symbol>

  <symbol viewBox="0 0 256 256" id="guitar-fill">
    <path d="M249.66,46.34l-40-40a8,8,0,0,0-11.32,11.32L200.69,20,140.52,80.16C117.73,68.3,92.21,69.29,76.75,84.74a42.27,42.27,0,0,0-9.39,14.37A8.24,8.24,0,0,1,59.81,104c-14.59.49-27.26,5.72-36.65,15.11C11.08,131.22,6,148.6,8.74,168.07,11.4,186.7,21.07,205.15,36,220s33.34,24.56,52,27.22A71.13,71.13,0,0,0,98.1,248c15.32,0,28.83-5.23,38.76-15.16,9.39-9.39,14.62-22.06,15.11-36.65a8.24,8.24,0,0,1,4.92-7.55,42.22,42.22,0,0,0,14.37-9.39c15.45-15.46,16.44-41,4.58-63.77L236,55.31l2.34,2.35a8,8,0,0,0,11.32-11.32Zm-156,159.31a8,8,0,0,1-11.31,0l-32-32a8,8,0,0,1,11.32-11.31l32,32A8,8,0,0,1,93.66,205.65Zm42.14-45.86a28,28,0,1,1,0-39.59A28,28,0,0,1,135.8,159.79Zm31.06-58a86.94,86.94,0,0,0-6-6.68,85.23,85.23,0,0,0-6.69-6L176,67.31,188.69,80ZM200,68.68,187.32,56,212,31.31,224.69,44Z" fill="currentColor"/>
  </symbol>

  <symbol viewBox="0 0 256 256" id="video-fill">
    <path d="M232,208a8,8,0,0,1-8,8H32a8,8,0,0,1,0-16H224A8,8,0,0,1,232,208Zm0-152V168a16,16,0,0,1-16,16H40a16,16,0,0,1-16-16V56A16,16,0,0,1,40,40H216A16,16,0,0,1,232,56Zm-68,56a8,8,0,0,0-3.41-6.55l-40-28A8,8,0,0,0,108,84v56a8,8,0,0,0,12.59,6.55l40-28A8,8,0,0,0,164,112Z" fill="currentColor"/>
  </symbol>

  <!-- Playback controls (filled) -->
  <symbol viewBox="0 0 256 256" id="play-fill">
    <path d="M240,128a15.74,15.74,0,0,1-7.6,13.51L88.32,229.65a16,16,0,0,1-16.2.3A15.86,15.86,0,0,1,64,216.13V39.87a15.86,15.86,0,0,1,8.12-13.82,16,16,0,0,1,16.2.3L232.4,114.49A15.74,15.74,0,0,1,240,128Z" fill="currentColor"/>
  </symbol>

  <symbol viewBox="0 0 256 256" id="pause-fill">
    <path d="M216,48V208a16,16,0,0,1-16,16H160a16,16,0,0,1-16-16V48a16,16,0,0,1,16-16h40A16,16,0,0,1,216,48ZM96,32H56A16,16,0,0,0,40,48V208a16,16,0,0,0,16,16H96a16,16,0,0,0,16-16V48A16,16,0,0,0,96,32Z" fill="currentColor"/>
  </symbol>

  <!-- Text/content (filled) -->
  <symbol viewBox="0 0 256 256" id="quotes-fill">
    <path d="M116,72v88a48.05,48.05,0,0,1-48,48,8,8,0,0,1,0-16,32,32,0,0,0,32-32v-8H40a16,16,0,0,1-16-16V72A16,16,0,0,1,40,56h60A16,16,0,0,1,116,72ZM216,56H156a16,16,0,0,0-16,16v64a16,16,0,0,0,16,16h60v8a32,32,0,0,1-32,32,8,8,0,0,0,0,16,48.05,48.05,0,0,0,48-48V72A16,16,0,0,0,216,56Z" fill="currentColor"/>
  </symbol>

  <!-- Arrow left fill -->
  <symbol viewBox="0 0 256 256" id="arrow-left-fill">
    <path d="M224,128a8,8,0,0,1-8,8H120v64a8,8,0,0,1-13.66,5.66l-72-72a8,8,0,0,1,0-11.32l72-72A8,8,0,0,1,120,56v64h96A8,8,0,0,1,224,128Z" fill="currentColor"/>
  </symbol>

  <!-- Brand/logo icons -->
  <symbol viewBox="0 0 40 40" id="ildeposito">
    <path d="m 4.721752,6.344385 c -0.0812,-0.007 -0.17182,-0.0252 -0.2522,-0.0517 -0.0849,-0.0279 -0.22144,-0.097 -0.29302,-0.14825 -0.0667,-0.0479 -0.16968,-0.14418 -0.22032,-0.20629 -0.10677,-0.13112 -0.18681,-0.28978 -0.22676,-0.44995 -0.12852,-0.5147 0.0929,-1.04388 0.54494,-1.30225 0.10913,-0.0624 0.22717,-0.10404 0.36635,-0.12938 0.0866,-0.0157 0.26686,-0.0141 0.36222,0.003 0.0912,0.0165 0.20536,0.0537 0.28542,0.0929 0.0344,0.0168 0.0651,0.0306 0.0682,0.0306 0.009,0 0.008,-2.7051 -0.002,-2.71018 -0.008,-0.004 -2.64969,-0.44398 -2.66998,-0.44398 h -0.0143 v 1.70505 c 0,1.1439 -0.003,1.72592 -0.007,1.76847 -0.069,0.68239 -0.6845,1.15344 -1.33498,1.02153 -0.43752903,-0.0887 -0.79106303,-0.44845 -0.88132803,-0.89673 -0.06571,-0.32647 0.0035,-0.65032 0.197123,-0.92413 0.04872,-0.0687 0.187378,-0.20641 0.258414,-0.25647 C 1.011452,3.369925 1.123528,3.315795 1.248062,3.279785 c 0.10751,-0.0311 0.15458,-0.0368 0.30265,-0.0366 0.11903,0 0.14601,0.002 0.20027,0.0139 0.0844,0.0185 0.18063,0.0506 0.2509,0.0839 0.0319,0.0151 0.0617,0.0275 0.0663,0.0275 0.008,0 0.009,-0.26459 0.009,-1.68425 0,-1.19768 0.003,-1.68426 0.006,-1.68426 0.0147,0 3.83675,0.78562 3.84098,0.78943 0.002,0.003 0.003,1.02099 0.003,2.26385 0,1.98896 -0.002,2.26706 -0.009,2.32057 -0.0426,0.27862 -0.18614,0.5363 -0.39749,0.71304 -0.1832,0.15318 -0.39202,0.23877 -0.62918,0.25791 -0.086,0.007 -0.0829,0.007 -0.17348,0 z m -0.183,-0.53668 c 0.0523,-0.0395 0.13787,-0.10467 0.19027,-0.14462 0.0631,-0.048 0.0991,-0.0717 0.10633,-0.0698 0.006,8.6e-4 0.0941,0.0653 0.19567,0.14156 0.14997,0.11252 0.18849,0.13868 0.20418,0.13868 0.0258,0 0.0477,-0.021 0.0477,-0.0458 0,-0.0105 -0.0317,-0.1178 -0.0707,-0.23839 -0.0388,-0.12061 -0.0698,-0.22422 -0.0687,-0.23027 0.002,-0.006 0.0802,-0.0687 0.18223,-0.14407 0.0993,-0.0732 0.18661,-0.13872 0.1942,-0.14563 0.0253,-0.0231 0.0131,-0.0798 -0.0184,-0.0853 -0.003,-8.7e-4 -0.11487,-8.7e-4 -0.24598,-8.7e-4 h -0.23831 l -0.0713,-0.23252 c -0.0761,-0.24736 -0.0793,-0.25438 -0.11643,-0.25438 -0.0265,0 -0.0445,0.0223 -0.0598,0.0739 -0.007,0.025 -0.0389,0.12818 -0.0699,0.22923 l -0.0563,0.18374 -0.24397,0.002 c -0.26524,0.002 -0.25904,8.7e-4 -0.27261,0.0364 -0.0123,0.0323 0,0.0438 0.19951,0.19152 0.11879,0.0877 0.1922,0.14588 0.1922,0.15219 0,0.006 -0.0317,0.11061 -0.0703,0.23334 -0.0388,0.1227 -0.0703,0.22835 -0.0703,0.23474 0,0.0166 0.0329,0.0474 0.0508,0.0474 0.01,0 0.0482,-0.0251 0.11001,-0.072 z" fill="currentColor" stroke-width="0.0869912"/>
  </symbol>
</svg>