<?xml version="1.0" encoding="UTF-8"?>
<svg xmlns="http://www.w3.org/2000/svg" xmlns:xlink="http://www.w3.org/1999/xlink" width="0" height="0">
<symbol id="ildeposito" viewBox="0 0 26.4583 30.4271"><path d="M20.5105 30.141c-.3827-.0318-.8092-.119-1.1878-.2435-.3996-.1314-1.043-.4568-1.38-.6983-.3143-.2251-.7992-.679-1.0377-.9715-.5029-.6176-.8799-1.3648-1.068-2.1192-.6053-2.4241.4374-4.9165 2.5666-6.1333.514-.2938 1.0699-.49 1.7254-.6093.4078-.0741 1.2568-.0668 1.706.0139.4295.0779.9672.2528 1.3442.4374.162.0793.3066.1443.3214.1443.0407 0 .0356-12.7405-.0105-12.7644-.0363-.022-12.4794-2.091-12.575-2.091h-.0672v8.0304c0 5.3875-.0105 8.1287-.031 8.3291-.3249 3.2139-3.224 5.4325-6.2875 4.8112-2.0607-.418-3.7258-2.1121-4.151-4.2234-.3095-1.5376.016-3.063.9285-4.3525.2295-.324.8825-.9722 1.217-1.208.513-.3611 1.0409-.6161 1.6274-.7857.5063-.1465.728-.1733 1.4255-.1722.5605 0 .6876.0088.9431.0652.3976.0868.8508.2383 1.1818.3952.1503.0713.2908.1295.3123.1295.0354 0 .0406-1.2461.0406-7.9324 0-5.6409.0105-7.9325.0302-7.9325.0688 0 18.0703 3.7 18.0902 3.718.0105.0112.0188 4.8086.0188 10.6623 0 9.3675-.0105 10.6774-.0407 10.9294-.2004 1.3122-.8768 2.5258-1.8721 3.3582-.8629.7215-1.8464 1.1246-2.9634 1.2147-.4051.0327-.3903.0327-.817 0zm-.8619-2.5277c.2463-.1864.6494-.493.8961-.6811.297-.2262.4665-.3377.5008-.3287.0311.0049.443.3074.9216.6667.7063.53.8877.6532.9616.6532.1218 0 .2245-.0987.2245-.2155 0-.0496-.1495-.5548-.3332-1.1228-.1829-.568-.3285-1.056-.3239-1.0845.0105-.0292.3777-.3236.8584-.6786.4676-.3447.8789-.6533.9146-.6859.119-.1087.0618-.376-.0867-.4016-.0187-.0049-.541-.0049-1.1584-.0049h-1.1224l-.3362-1.095c-.3583-1.165-.3735-1.1982-.5483-1.1982-.1247 0-.2094.1048-.282.3482-.0347.1177-.1834.6038-.329 1.0797l-.2653.8653-1.149.007c-1.2493.0068-1.22.0048-1.284.1716-.0579.1524 0 .206.9397.902.5595.4133.9053.687.9053.7168 0 .0268-.1493.521-.331 1.099-.1825.5779-.3311 1.0754-.3311 1.1055 0 .0786.1549.2233.2394.2233.0467 0 .2273-.1185.518-.3389z"/></symbol><symbol id="envelope-simple-fill" width="32" height="32" viewBox="0 0 256 256"><path d="M224,48H32a8,8,0,0,0-8,8V192a16,16,0,0,0,16,16H216a16,16,0,0,0,16-16V56A8,8,0,0,0,224,48Zm-8,144H40V74.19l82.59,75.71a8,8,0,0,0,10.82,0L216,74.19V192Z"></path></symbol><symbol id="threads-logo-fill" width="32" height="32" viewBox="0 0 256 256"><path d="M138.62,128a53.54,53.54,0,0,1,13.1,1.63c-.57,8.21-3.34,15-8.11,19.61A23.89,23.89,0,0,1,127,156c-11.87,0-15-7.58-15-12.07C112,133,125.8,128,138.62,128ZM224,128c0,65.12-35.89,104-96,104S32,193.12,32,128,67.89,24,128,24,224,62.88,224,128ZM72,128c0-43.07,18.32-64,56-64,26.34,0,43,10.08,50.81,30.83a8,8,0,0,0,15-5.66C180.9,55.14,150.9,48,128,48c-26.1,0-45.52,8.7-57.72,25.86C60.8,87.19,56,105.4,56,128s4.8,40.81,14.28,54.14C82.48,199.3,101.9,208,128,208c24.45,0,39.82-8.8,48.41-16.18,10.76-9.25,17.19-21.89,17.19-33.82,0-14.3-6.59-26.79-18.56-35.17a54.16,54.16,0,0,0-7.77-4.5c-2.09-14.65-10-25.75-22.34-31.07C130.43,81,112,83.93,101.21,94.19a8,8,0,0,0,11,11.62c5.43-5.14,16.79-8,26.4-3.85a20.05,20.05,0,0,1,10.77,10.92,68.89,68.89,0,0,0-10.76-.85C113.53,112,96,125.15,96,143.93c0,16.27,13,28.07,31,28.07a40,40,0,0,0,27.75-11.29c4.7-4.59,10.11-12.2,12.17-24A25.55,25.55,0,0,1,177.6,158c0,13.71-15.76,34-49.6,34C90.32,192,72,171.07,72,128Z"></path></symbol><symbol id="telegram-logo-fill" width="32" height="32" viewBox="0 0 256 256"><path d="M228.88,26.19a9,9,0,0,0-9.16-1.57L17.06,103.93a14.22,14.22,0,0,0,2.43,27.21L72,141.45V200a15.92,15.92,0,0,0,10,14.83,15.91,15.91,0,0,0,17.51-3.73l25.32-26.26L165,220a15.88,15.88,0,0,0,10.51,4,16.3,16.3,0,0,0,5-.79,15.85,15.85,0,0,0,10.67-11.63L231.77,35A9,9,0,0,0,228.88,26.19ZM175.53,208,92.85,135.5l119-85.29Z"></path></symbol><symbol id="x-logo-fill" width="32" height="32" viewBox="0 0 256 256"><path d="M215,219.85a8,8,0,0,1-7,4.15H160a8,8,0,0,1-6.75-3.71l-40.49-63.63L53.92,221.38a8,8,0,0,1-11.84-10.76l61.77-68L41.25,44.3A8,8,0,0,1,48,32H96a8,8,0,0,1,6.75,3.71l40.49,63.63,58.84-64.72a8,8,0,0,1,11.84,10.76l-61.77,67.95,62.6,98.38A8,8,0,0,1,215,219.85Z"></path></symbol><symbol id="whatsapp-logo-fill" width="32" height="32" viewBox="0 0 256 256"><path d="M152.58,145.23l23,11.48A24,24,0,0,1,152,176a72.08,72.08,0,0,1-72-72A24,24,0,0,1,99.29,80.46l11.48,23L101,118a8,8,0,0,0-.73,7.51,56.47,56.47,0,0,0,30.15,30.15A8,8,0,0,0,138,155ZM232,128A104,104,0,0,1,79.12,219.82L45.07,231.17a16,16,0,0,1-20.24-20.24l11.35-34.05A104,104,0,1,1,232,128Zm-40,24a8,8,0,0,0-4.42-7.16l-32-16a8,8,0,0,0-8,.5l-14.69,9.8a40.55,40.55,0,0,1-16-16l9.8-14.69a8,8,0,0,0,.5-8l-16-32A8,8,0,0,0,104,64a40,40,0,0,0-40,40,88.1,88.1,0,0,0,88,88A40,40,0,0,0,192,152Z"></path></symbol><symbol id="youtube-logo-fill" width="32" height="32" viewBox="0 0 256 256"><path d="M234.33,69.52a24,24,0,0,0-14.49-16.4C185.56,39.88,131,40,128,40s-57.56-.12-91.84,13.12a24,24,0,0,0-14.49,16.4C19.08,79.5,16,97.74,16,128s3.08,48.5,5.67,58.48a24,24,0,0,0,14.49,16.41C69,215.56,120.4,216,127.34,216h1.32c6.94,0,58.37-.44,91.18-13.11a24,24,0,0,0,14.49-16.41c2.59-10,5.67-28.22,5.67-58.48S236.92,79.5,234.33,69.52Zm-73.74,65-40,28A8,8,0,0,1,108,156V100a8,8,0,0,1,12.59-6.55l40,28a8,8,0,0,1,0,13.1Z"></path></symbol><symbol id="video-fill" width="32" height="32" viewBox="0 0 256 256"><path d="M232,208a8,8,0,0,1-8,8H32a8,8,0,0,1,0-16H224A8,8,0,0,1,232,208Zm0-152V168a16,16,0,0,1-16,16H40a16,16,0,0,1-16-16V56A16,16,0,0,1,40,40H216A16,16,0,0,1,232,56Zm-68,56a8,8,0,0,0-3.41-6.55l-40-28A8,8,0,0,0,108,84v56a8,8,0,0,0,12.59,6.55l40-28A8,8,0,0,0,164,112Z"></path></symbol><symbol id="user-list-fill" width="32" height="32" viewBox="0 0 256 256"><path d="M152,80a8,8,0,0,1,8-8h88a8,8,0,0,1,0,16H160A8,8,0,0,1,152,80Zm96,40H160a8,8,0,0,0,0,16h88a8,8,0,0,0,0-16Zm0,48H184a8,8,0,0,0,0,16h64a8,8,0,0,0,0-16ZM109.29,142a48,48,0,1,0-58.58,0c-20.62,8.73-36.87,26.3-42.46,48A8,8,0,0,0,16,200H144a8,8,0,0,0,7.75-10C146.16,168.29,129.91,150.72,109.29,142Z"></path></symbol><symbol id="user-fill" width="32" height="32" viewBox="0 0 256 256"><path d="M230.93,220a8,8,0,0,1-6.93,4H32a8,8,0,0,1-6.92-12c15.23-26.33,38.7-45.21,66.09-54.16a72,72,0,1,1,73.66,0c27.39,8.95,50.86,27.83,66.09,54.16A8,8,0,0,1,230.93,220Z"></path></symbol><symbol id="tag-fill" width="32" height="32" viewBox="0 0 256 256"><path d="M243.31,136,144,36.69A15.86,15.86,0,0,0,132.69,32H40a8,8,0,0,0-8,8v92.69A15.86,15.86,0,0,0,36.69,144L136,243.31a16,16,0,0,0,22.63,0l84.68-84.68a16,16,0,0,0,0-22.63ZM84,96A12,12,0,1,1,96,84,12,12,0,0,1,84,96Z"></path></symbol><symbol id="share-network-fill" width="32" height="32" viewBox="0 0 256 256"><path d="M212,200a36,36,0,1,1-69.85-12.25l-53-34.05a36,36,0,1,1,0-51.4l53-34a36.09,36.09,0,1,1,8.67,13.45l-53,34.05a36,36,0,0,1,0,24.5l53,34.05A36,36,0,0,1,212,200Z"></path></symbol><symbol id="quotes-fill" width="32" height="32" viewBox="0 0 256 256"><path d="M116,72v88a48.05,48.05,0,0,1-48,48,8,8,0,0,1,0-16,32,32,0,0,0,32-32v-8H40a16,16,0,0,1-16-16V72A16,16,0,0,1,40,56h60A16,16,0,0,1,116,72ZM216,56H156a16,16,0,0,0-16,16v64a16,16,0,0,0,16,16h60v8a32,32,0,0,1-32,32,8,8,0,0,0,0,16,48.05,48.05,0,0,0,48-48V72A16,16,0,0,0,216,56Z"></path></symbol><symbol id="play-fill" width="32" height="32" viewBox="0 0 256 256"><path d="M240,128a15.74,15.74,0,0,1-7.6,13.51L88.32,229.65a16,16,0,0,1-16.2.3A15.86,15.86,0,0,1,64,216.13V39.87a15.86,15.86,0,0,1,8.12-13.82,16,16,0,0,1,16.2.3L232.4,114.49A15.74,15.74,0,0,1,240,128Z"></path></symbol><symbol id="pause-fill" width="32" height="32" viewBox="0 0 256 256"><path d="M216,48V208a16,16,0,0,1-16,16H160a16,16,0,0,1-16-16V48a16,16,0,0,1,16-16h40A16,16,0,0,1,216,48ZM96,32H56A16,16,0,0,0,40,48V208a16,16,0,0,0,16,16H96a16,16,0,0,0,16-16V48A16,16,0,0,0,96,32Z"></path></symbol><symbol id="music-notes-simple-fill" width="32" height="32" viewBox="0 0 256 256"><path d="M212.92,17.69a8,8,0,0,0-6.86-1.45l-128,32A8,8,0,0,0,72,56V166.08A36,36,0,1,0,88,196V62.25l112-28v99.83A36,36,0,1,0,216,164V24A8,8,0,0,0,212.92,17.69Z"></path></symbol><symbol id="music-notes-fill" width="32" height="32" viewBox="0 0 256 256"><path d="M212.92,17.71a7.89,7.89,0,0,0-6.86-1.46l-128,32A8,8,0,0,0,72,56V166.1A36,36,0,1,0,88,196V102.25l112-28V134.1A36,36,0,1,0,216,164V24A8,8,0,0,0,212.92,17.71Z"></path></symbol><symbol id="music-note-simple-fill" width="32" height="32" viewBox="0 0 256 256"><path d="M210.3,56.34l-80-24A8,8,0,0,0,120,40V148.26A48,48,0,1,0,136,184V50.75l69.7,20.91a8,8,0,1,0,4.6-15.32Z"></path></symbol><symbol id="music-note-fill" width="32" height="32" viewBox="0 0 256 256"><path d="M210.3,56.34l-80-24A8,8,0,0,0,120,40V148.26A48,48,0,1,0,136,184V98.75l69.7,20.91A8,8,0,0,0,216,112V64A8,8,0,0,0,210.3,56.34Z"></path></symbol><symbol id="list-fill" width="32" height="32" viewBox="0 0 256 256"><path d="M208,32H48A16,16,0,0,0,32,48V208a16,16,0,0,0,16,16H208a16,16,0,0,0,16-16V48A16,16,0,0,0,208,32ZM192,184H64a8,8,0,0,1,0-16H192a8,8,0,0,1,0,16Zm0-48H64a8,8,0,0,1,0-16H192a8,8,0,0,1,0,16Zm0-48H64a8,8,0,0,1,0-16H192a8,8,0,0,1,0,16Z"></path></symbol><symbol id="headphones-fill" width="32" height="32" viewBox="0 0 256 256"><path d="M232,128v56a24,24,0,0,1-24,24H192a24,24,0,0,1-24-24V144a24,24,0,0,1,24-24h23.65a87.71,87.71,0,0,0-87-80H128a88,88,0,0,0-87.64,80H64a24,24,0,0,1,24,24v40a24,24,0,0,1-24,24H48a24,24,0,0,1-24-24V128A104.11,104.11,0,0,1,201.89,54.66,103.41,103.41,0,0,1,232,128Z"></path></symbol><symbol id="guitar-fill" width="32" height="32" viewBox="0 0 256 256"><path d="M249.66,46.34l-40-40a8,8,0,0,0-11.32,11.32L200.69,20,140.52,80.16C117.73,68.3,92.21,69.29,76.75,84.74a42.27,42.27,0,0,0-9.39,14.37A8.24,8.24,0,0,1,59.81,104c-14.59.49-27.26,5.72-36.65,15.11C11.08,131.22,6,148.6,8.74,168.07,11.4,186.7,21.07,205.15,36,220s33.34,24.56,52,27.22A71.13,71.13,0,0,0,98.1,248c15.32,0,28.83-5.23,38.76-15.16,9.39-9.39,14.62-22.06,15.11-36.65a8.24,8.24,0,0,1,4.92-7.55,42.22,42.22,0,0,0,14.37-9.39c15.45-15.46,16.44-41,4.58-63.77L236,55.31l2.34,2.35a8,8,0,0,0,11.32-11.32Zm-156,159.31a8,8,0,0,1-11.31,0l-32-32a8,8,0,0,1,11.32-11.31l32,32A8,8,0,0,1,93.66,205.65Zm42.14-45.86a28,28,0,1,1,0-39.59A28,28,0,0,1,135.8,159.79Zm31.06-58a86.94,86.94,0,0,0-6-6.68,85.23,85.23,0,0,0-6.69-6L176,67.31,188.69,80ZM200,68.68,187.32,56,212,31.31,224.69,44Z"></path></symbol><symbol id="globe-fill" width="32" height="32" viewBox="0 0 256 256"><path d="M128,24h0A104,104,0,1,0,232,128,104.12,104.12,0,0,0,128,24Zm78.36,64H170.71a135.28,135.28,0,0,0-22.3-45.6A88.29,88.29,0,0,1,206.37,88ZM216,128a87.61,87.61,0,0,1-3.33,24H174.16a157.44,157.44,0,0,0,0-48h38.51A87.61,87.61,0,0,1,216,128ZM128,43a115.27,115.27,0,0,1,26,45H102A115.11,115.11,0,0,1,128,43ZM102,168H154a115.11,115.11,0,0,1-26,45A115.27,115.27,0,0,1,102,168Zm-3.9-16a140.84,140.84,0,0,1,0-48h59.88a140.84,140.84,0,0,1,0,48Zm50.35,61.6a135.28,135.28,0,0,0,22.3-45.6h35.66A88.29,88.29,0,0,1,148.41,213.6Z"></path></symbol><symbol id="file-pdf-fill" width="32" height="32" viewBox="0 0 256 256"><path d="M44,120H212a4,4,0,0,0,4-4V88a8,8,0,0,0-2.34-5.66l-56-56A8,8,0,0,0,152,24H56A16,16,0,0,0,40,40v76A4,4,0,0,0,44,120ZM152,44l44,44H152Zm72,108.53a8.18,8.18,0,0,1-8.25,7.47H192v16h15.73a8.17,8.17,0,0,1,8.25,7.47,8,8,0,0,1-8,8.53H192v15.73a8.17,8.17,0,0,1-7.47,8.25,8,8,0,0,1-8.53-8V152a8,8,0,0,1,8-8h32A8,8,0,0,1,224,152.53ZM64,144H48a8,8,0,0,0-8,8v55.73A8.17,8.17,0,0,0,47.47,216,8,8,0,0,0,56,208v-8h7.4c15.24,0,28.14-11.92,28.59-27.15A28,28,0,0,0,64,144Zm-.35,40H56V160h8a12,12,0,0,1,12,13.16A12.25,12.25,0,0,1,63.65,184ZM128,144H112a8,8,0,0,0-8,8v56a8,8,0,0,0,8,8h15.32c19.66,0,36.21-15.48,36.67-35.13A36,36,0,0,0,128,144Zm-.49,56H120V160h8a20,20,0,0,1,20,20.77C147.58,191.59,138.34,200,127.51,200Z"></path></symbol><symbol id="file-fill" width="32" height="32" viewBox="0 0 256 256"><path d="M213.66,82.34l-56-56A8,8,0,0,0,152,24H56A16,16,0,0,0,40,40V216a16,16,0,0,0,16,16H200a16,16,0,0,0,16-16V88A8,8,0,0,0,213.66,82.34ZM152,88V44l44,44Z"></path></symbol><symbol id="faders-fill" width="32" height="32" viewBox="0 0 256 256"><path d="M136,120v96a8,8,0,0,1-16,0V120a8,8,0,0,1,16,0Zm64,72a8,8,0,0,0-8,8v16a8,8,0,0,0,16,0V200A8,8,0,0,0,200,192Zm24-48H208V40a8,8,0,0,0-16,0V144H176a8,8,0,0,0-8,8v16a8,8,0,0,0,8,8h48a8,8,0,0,0,8-8V152A8,8,0,0,0,224,144ZM56,160a8,8,0,0,0-8,8v48a8,8,0,0,0,16,0V168A8,8,0,0,0,56,160Zm24-48H64V40a8,8,0,0,0-16,0v72H32a8,8,0,0,0-8,8v16a8,8,0,0,0,8,8H80a8,8,0,0,0,8-8V120A8,8,0,0,0,80,112Zm72-48H136V40a8,8,0,0,0-16,0V64H104a8,8,0,0,0-8,8V88a8,8,0,0,0,8,8h48a8,8,0,0,0,8-8V72A8,8,0,0,0,152,64Z"></path></symbol><symbol id="facebook-logo-fill" width="32" height="32" viewBox="0 0 256 256"><path d="M232,128a104.16,104.16,0,0,1-91.55,103.26,4,4,0,0,1-4.45-4V152h24a8,8,0,0,0,8-8.53,8.17,8.17,0,0,0-8.25-7.47H136V112a16,16,0,0,1,16-16h16a8,8,0,0,0,8-8.53A8.17,8.17,0,0,0,167.73,80H152a32,32,0,0,0-32,32v24H96a8,8,0,0,0-8,8.53A8.17,8.17,0,0,0,96.27,152H120v75.28a4,4,0,0,1-4.44,4A104.15,104.15,0,0,1,24.07,124.09c2-54,45.74-97.9,99.78-100A104.12,104.12,0,0,1,232,128Z"></path></symbol><symbol id="download-simple-fill" width="32" height="32" viewBox="0 0 256 256"><path d="M224,144v64a8,8,0,0,1-8,8H40a8,8,0,0,1-8-8V144a8,8,0,0,1,16,0v56H208V144a8,8,0,0,1,16,0Zm-101.66,5.66a8,8,0,0,0,11.32,0l40-40A8,8,0,0,0,168,96H136V32a8,8,0,0,0-16,0V96H88a8,8,0,0,0-5.66,13.66Z"></path></symbol><symbol id="chat-text-fill" width="32" height="32" viewBox="0 0 256 256"><path d="M216,48H40A16,16,0,0,0,24,64V224a15.84,15.84,0,0,0,9.25,14.5A16.05,16.05,0,0,0,40,240a15.89,15.89,0,0,0,10.25-3.78l.09-.07L83,208H216a16,16,0,0,0,16-16V64A16,16,0,0,0,216,48ZM160,152H96a8,8,0,0,1,0-16h64a8,8,0,0,1,0,16Zm0-32H96a8,8,0,0,1,0-16h64a8,8,0,0,1,0,16Z"></path></symbol><symbol id="calendar-star-fill" width="32" height="32" viewBox="0 0 256 256"><path d="M208,32H184V24a8,8,0,0,0-16,0v8H88V24a8,8,0,0,0-16,0v8H48A16,16,0,0,0,32,48V208a16,16,0,0,0,16,16H208a16,16,0,0,0,16-16V48A16,16,0,0,0,208,32ZM72,64V56a8,8,0,0,1,16,0v8a8,8,0,0,1-16,0Zm106.55,60.7-24.46,20.19L161.55,175a4,4,0,0,1-1.49,4.17,4.05,4.05,0,0,1-2.39.79,4,4,0,0,1-2-.55L128,163.18l-27.64,16.27A4,4,0,0,1,94.45,175l7.46-30.15L77.45,124.7a4,4,0,0,1,2.24-7.08l32.24-2.49,12.4-28.71a4,4,0,0,1,7.34,0l12.4,28.71,32.24,2.49a4,4,0,0,1,2.24,7.08ZM184,64a8,8,0,0,1-16,0V56a8,8,0,0,1,16,0Z"></path></symbol><symbol id="calendar-dots-fill" width="32" height="32" viewBox="0 0 256 256"><path d="M208,32H184V24a8,8,0,0,0-16,0v8H88V24a8,8,0,0,0-16,0v8H48A16,16,0,0,0,32,48V208a16,16,0,0,0,16,16H208a16,16,0,0,0,16-16V48A16,16,0,0,0,208,32ZM84,184a12,12,0,1,1,12-12A12,12,0,0,1,84,184Zm44,0a12,12,0,1,1,12-12A12,12,0,0,1,128,184Zm0-40a12,12,0,1,1,12-12A12,12,0,0,1,128,144Zm44,40a12,12,0,1,1,12-12A12,12,0,0,1,172,184Zm0-40a12,12,0,1,1,12-12A12,12,0,0,1,172,144Zm36-64H48V48H72v8a8,8,0,0,0,16,0V48h80v8a8,8,0,0,0,16,0V48h24Z"></path></symbol><symbol id="books-fill" width="32" height="32" viewBox="0 0 256 256"><path d="M231.65,194.55,198.46,36.75a16,16,0,0,0-19-12.39L132.65,34.42a16.08,16.08,0,0,0-12.3,19l33.19,157.8A16,16,0,0,0,169.16,224a16.25,16.25,0,0,0,3.38-.36l46.81-10.06A16.09,16.09,0,0,0,231.65,194.55ZM136,50.15c0-.06,0-.09,0-.09l46.8-10,3.33,15.87L139.33,66Zm10,47.38-3.35-15.9,46.82-10.06,3.34,15.9Zm70,100.41-46.8,10-3.33-15.87L212.67,182,216,197.85C216,197.91,216,197.94,216,197.94ZM104,32H56A16,16,0,0,0,40,48V208a16,16,0,0,0,16,16h48a16,16,0,0,0,16-16V48A16,16,0,0,0,104,32ZM56,48h48V64H56Zm48,160H56V192h48v16Z"></path></symbol><symbol id="arrow-right-fill" width="32" height="32" viewBox="0 0 256 256"><path d="M221.66,133.66l-72,72A8,8,0,0,1,136,200V136H40a8,8,0,0,1,0-16h96V56a8,8,0,0,1,13.66-5.66l72,72A8,8,0,0,1,221.66,133.66Z"></path></symbol><symbol id="arrow-left-fill" width="32" height="32" viewBox="0 0 256 256"><path d="M224,128a8,8,0,0,1-8,8H120v64a8,8,0,0,1-13.66,5.66l-72-72a8,8,0,0,1,0-11.32l72-72A8,8,0,0,1,120,56v64h96A8,8,0,0,1,224,128Z"></path></symbol><symbol id="magnifying-glass-fill" width="32" height="32" viewBox="0 0 256 256"><path d="M168,112a56,56,0,1,1-56-56A56,56,0,0,1,168,112Zm61.66,117.66a8,8,0,0,1-11.32,0l-50.06-50.07a88,88,0,1,1,11.32-11.31l50.06,50.06A8,8,0,0,1,229.66,229.66ZM112,184a72,72,0,1,0-72-72A72.08,72.08,0,0,0,112,184Z"></path></symbol></svg>
