<svg xmlns="http://www.w3.org/2000/svg" width="32" height="32" fill="currentColor" viewBox="0 0 256 256"><path d="m 174.74516,223.83207 c -2.45655,-0.2038 -5.19496,-0.76342 -7.62539,-1.56316 -2.56539,-0.84308 -6.69559,-2.93237 -8.85964,-4.48249 -2.01768,-1.44557 -5.13074,-4.35952 -6.66172,-6.23736 -3.22842,-3.96478 -5.64873,-8.76186 -6.85668,-13.60492 -3.88606,-15.56254 2.80817,-31.56305 16.47715,-39.37489 3.29971,-1.88629 6.86862,-3.14588 11.077,-3.9119 2.61789,-0.47566 8.0686,-0.42844 10.95218,0.0894 2.7575,0.50017 6.2093,1.62318 8.62983,2.80826 1.04037,0.50892 1.96856,0.926 2.06353,0.926 0.26111,0 0.22832,-81.791978 -0.0673,-81.945608 -0.23335,-0.14092 -80.11662,-13.42418 -80.73004,-13.42418 h -0.43167 v 51.554338 c 0,34.58701 -0.0673,52.18518 -0.19945,53.47184 -2.08517,20.63274 -20.696881,34.87576 -40.364661,30.88722 -13.22928,-2.68295 -23.91888,-13.55944 -26.64817,-27.11379 -1.98721,-9.8712 0.10195,-19.66332 5.96021,-27.9421 1.47334,-2.07967 5.66562,-6.24133 7.8134,-7.75479 3.29344,-2.31903 6.68222,-3.95587 10.44764,-5.04465 3.25056,-0.94041 4.67396,-1.1124 9.15125,-1.10575 3.59878,0 4.41475,0.0569 6.05509,0.41902 2.55199,0.5568 5.46157,1.52949 7.58643,2.53705 0.96526,0.45742 1.86724,0.83143 2.00497,0.83143 0.22776,0 0.26111,-8.00004 0.26111,-50.925388 0,-36.21342 0.0673,-50.92565 0.19374,-50.92565 0.44165,0 116.008951,23.75417 116.136781,23.86962 0.0673,0.0718 0.1202,30.87054 0.1202,68.450198 0,60.13847 -0.0673,68.54722 -0.2611,70.16524 -1.28605,8.42444 -5.6286,16.21559 -12.01873,21.55944 -5.53949,4.63182 -11.85335,7.21946 -19.02414,7.79838 -2.60114,0.20949 -2.50624,0.20949 -5.24537,0 z m -5.53325,-16.22725 c 1.58152,-1.19654 4.16895,-3.16456 5.75305,-4.37257 1.90668,-1.45187 2.99494,-2.16786 3.21502,-2.11041 0.19946,0.0314 2.84406,1.97364 5.91662,4.28016 4.5344,3.40236 5.69896,4.19338 6.17338,4.19338 0.78142,0 1.44071,-0.63348 1.44071,-1.38336 0,-0.31839 -0.95961,-3.56185 -2.1385,-7.20806 -1.17447,-3.64658 -2.10906,-6.7796 -2.0795,-6.9626 0.0673,-0.18745 2.42455,-2.07744 5.51056,-4.3561 3.00216,-2.21278 5.64218,-4.19422 5.87142,-4.40324 0.76457,-0.69841 0.39699,-2.41412 -0.55613,-2.57826 -0.1202,-0.0313 -3.47307,-0.0313 -7.43731,-0.0313 h -7.20559 l -2.15801,-7.03054 c -2.30025,-7.47907 -2.39782,-7.69152 -3.52029,-7.69152 -0.8004,0 -1.34432,0.67269 -1.80982,2.23541 -0.2233,0.75558 -1.17798,3.87574 -2.11236,6.93119 l -1.70341,5.55546 -7.37671,0.0445 c -8.01979,0.0439 -7.83235,0.0314 -8.24263,1.10203 -0.37189,0.97862 0,1.3224 6.03234,5.79084 3.59192,2.65313 5.8118,4.4109 5.8118,4.60186 0,0.1717 -0.95845,3.34433 -2.12499,7.05507 -1.17117,3.7102 -2.1254,6.90432 -2.1254,7.09758 0,0.50463 0.99443,1.43352 1.53682,1.43352 0.30008,0 1.45948,-0.76121 3.3258,-2.17597 z"/></svg>
