<svg xmlns="http://www.w3.org/2000/svg" viewBox="0 0 26.4583 30.4271"><path fill="currentColor" d="M20.5105 30.141c-.3827-.0318-.8092-.119-1.1878-.2435-.3996-.1314-1.043-.4568-1.38-.6983-.3143-.2251-.7992-.679-1.0377-.9715-.5029-.6176-.8799-1.3648-1.068-2.1192-.6053-2.4241.4374-4.9165 2.5666-6.1333.514-.2938 1.0699-.49 1.7254-.6093.4078-.0741 1.2568-.0668 1.706.0139.4295.0779.9672.2528 1.3442.4374.162.0793.3066.1443.3214.1443.0407 0 .0356-12.7405-.0105-12.7644-.0363-.022-12.4794-2.091-12.575-2.091h-.0672v8.0304c0 5.3875-.0105 8.1287-.031 8.3291-.3249 3.2139-3.224 5.4325-6.2875 4.8112-2.0607-.418-3.7258-2.1121-4.151-4.2234-.3095-1.5376.016-3.063.9285-4.3525.2295-.324.8825-.9722 1.217-1.208.513-.3611 1.0409-.6161 1.6274-.7857.5063-.1465.728-.1733 1.4255-.1722.5605 0 .6876.0088.9431.0652.3976.0868.8508.2383 1.1818.3952.1503.0713.2908.1295.3123.1295.0354 0 .0406-1.2461.0406-7.9324 0-5.6409.0105-7.9325.0302-7.9325.0688 0 18.0703 3.7 18.0902 3.718.0105.0112.0188 4.8086.0188 10.6623 0 9.3675-.0105 10.6774-.0407 10.9294-.2004 1.3122-.8768 2.5258-1.8721 3.3582-.8629.7215-1.8464 1.1246-2.9634 1.2147-.4051.0327-.3903.0327-.817 0zm-.8619-2.5277c.2463-.1864.6494-.493.8961-.6811.297-.2262.4665-.3377.5008-.3287.0311.0049.443.3074.9216.6667.7063.53.8877.6532.9616.6532.1218 0 .2245-.0987.2245-.2155 0-.0496-.1495-.5548-.3332-1.1228-.1829-.568-.3285-1.056-.3239-1.0845.0105-.0292.3777-.3236.8584-.6786.4676-.3447.8789-.6533.9146-.6859.119-.1087.0618-.376-.0867-.4016-.0187-.0049-.541-.0049-1.1584-.0049h-1.1224l-.3362-1.095c-.3583-1.165-.3735-1.1982-.5483-1.1982-.1247 0-.2094.1048-.282.3482-.0347.1177-.1834.6038-.329 1.0797l-.2653.8653-1.149.007c-1.2493.0068-1.22.0048-1.284.1716-.0579.1524 0 .206.9397.902.5595.4133.9053.687.9053.7168 0 .0268-.1493.521-.331 1.099-.1825.5779-.3311 1.0754-.3311 1.1055 0 .0786.1549.2233.2394.2233.0467 0 .2273-.1185.518-.3389z"/></svg>
