<svg width="0" height="0" class="hidden" xmlns="http://www.w3.org/2000/svg">
  <!-- Brand/logo icons -->
  <symbol viewBox="0 0 6.35 6.35" id="ildeposito">
    <path d="m 4.721752,6.344385 c -0.0812,-0.007 -0.17182,-0.0252 -0.2522,-0.0517 -0.0849,-0.0279 -0.22144,-0.097 -0.29302,-0.14825 -0.0667,-0.0479 -0.16968,-0.14418 -0.22032,-0.20629 -0.10677,-0.13112 -0.18681,-0.28978 -0.22676,-0.44995 -0.12852,-0.5147 0.0929,-1.04388 0.54494,-1.30225 0.10913,-0.0624 0.22717,-0.10404 0.36635,-0.12938 0.0866,-0.0157 0.26686,-0.0141 0.36222,0.003 0.0912,0.0165 0.20536,0.0537 0.28542,0.0929 0.0344,0.0168 0.0651,0.0306 0.0682,0.0306 0.009,0 0.008,-2.7051 -0.002,-2.71018 -0.008,-0.004 -2.64969,-0.44398 -2.66998,-0.44398 h -0.0143 v 1.70505 c 0,1.1439 -0.003,1.72592 -0.007,1.76847 -0.069,0.68239 -0.6845,1.15344 -1.33498,1.02153 -0.43752903,-0.0887 -0.79106303,-0.44845 -0.88132803,-0.89673 -0.06571,-0.32647 0.0035,-0.65032 0.197123,-0.92413 0.04872,-0.0687 0.187378,-0.20641 0.258414,-0.25647 C 1.011452,3.369925 1.123528,3.315795 1.248062,3.279785 c 0.10751,-0.0311 0.15458,-0.0368 0.30265,-0.0366 0.11903,0 0.14601,0.002 0.20027,0.0139 0.0844,0.0185 0.18063,0.0506 0.2509,0.0839 0.0319,0.0151 0.0617,0.0275 0.0663,0.0275 0.008,0 0.009,-0.26459 0.009,-1.68425 0,-1.19768 0.003,-1.68426 0.006,-1.68426 0.0147,0 3.83675,0.78562 3.84098,0.78943 0.002,0.003 0.003,1.02099 0.003,2.26385 0,1.98896 -0.002,2.26706 -0.009,2.32057 -0.0426,0.27862 -0.18614,0.5363 -0.39749,0.71304 -0.1832,0.15318 -0.39202,0.23877 -0.62918,0.25791 -0.086,0.007 -0.0829,0.007 -0.17348,0 z m -0.183,-0.53668 c 0.0523,-0.0395 0.13787,-0.10467 0.19027,-0.14462 0.0631,-0.048 0.0991,-0.0717 0.10633,-0.0698 0.006,8.6e-4 0.0941,0.0653 0.19567,0.14156 0.14997,0.11252 0.18849,0.13868 0.20418,0.13868 0.0258,0 0.0477,-0.021 0.0477,-0.0458 0,-0.0105 -0.0317,-0.1178 -0.0707,-0.23839 -0.0388,-0.12061 -0.0698,-0.22422 -0.0687,-0.23027 0.002,-0.006 0.0802,-0.0687 0.18223,-0.14407 0.0993,-0.0732 0.18661,-0.13872 0.1942,-0.14563 0.0253,-0.0231 0.0131,-0.0798 -0.0184,-0.0853 -0.003,-8.7e-4 -0.11487,-8.7e-4 -0.24598,-8.7e-4 h -0.23831 l -0.0713,-0.23252 c -0.0761,-0.24736 -0.0793,-0.25438 -0.11643,-0.25438 -0.0265,0 -0.0445,0.0223 -0.0598,0.0739 -0.007,0.025 -0.0389,0.12818 -0.0699,0.22923 l -0.0563,0.18374 -0.24397,0.002 c -0.26524,0.002 -0.25904,8.7e-4 -0.27261,0.0364 -0.0123,0.0323 0,0.0438 0.19951,0.19152 0.11879,0.0877 0.1922,0.14588 0.1922,0.15219 0,0.006 -0.0317,0.11061 -0.0703,0.23334 -0.0388,0.1227 -0.0703,0.22835 -0.0703,0.23474 0,0.0166 0.0329,0.0474 0.0508,0.0474 0.01,0 0.0482,-0.0251 0.11001,-0.072 z" fill="currentColor" stroke-width="0.0869912"/>
  </symbol>
</svg>
